G04 #@! TF.GenerationSoftware,KiCad,Pcbnew,(6.0.7)*
G04 #@! TF.CreationDate,2022-10-05T19:21:38-05:00*
G04 #@! TF.ProjectId,INA186_Breakout,494e4131-3836-45f4-9272-65616b6f7574,rev?*
G04 #@! TF.SameCoordinates,Original*
G04 #@! TF.FileFunction,Copper,L1,Top*
G04 #@! TF.FilePolarity,Positive*
%FSLAX46Y46*%
G04 Gerber Fmt 4.6, Leading zero omitted, Abs format (unit mm)*
G04 Created by KiCad (PCBNEW (6.0.7)) date 2022-10-05 19:21:38*
%MOMM*%
%LPD*%
G01*
G04 APERTURE LIST*
G04 Aperture macros list*
%AMRoundRect*
0 Rectangle with rounded corners*
0 $1 Rounding radius*
0 $2 $3 $4 $5 $6 $7 $8 $9 X,Y pos of 4 corners*
0 Add a 4 corners polygon primitive as box body*
4,1,4,$2,$3,$4,$5,$6,$7,$8,$9,$2,$3,0*
0 Add four circle primitives for the rounded corners*
1,1,$1+$1,$2,$3*
1,1,$1+$1,$4,$5*
1,1,$1+$1,$6,$7*
1,1,$1+$1,$8,$9*
0 Add four rect primitives between the rounded corners*
20,1,$1+$1,$2,$3,$4,$5,0*
20,1,$1+$1,$4,$5,$6,$7,0*
20,1,$1+$1,$6,$7,$8,$9,0*
20,1,$1+$1,$8,$9,$2,$3,0*%
G04 Aperture macros list end*
G04 #@! TA.AperFunction,ComponentPad*
%ADD10C,2.600000*%
G04 #@! TD*
G04 #@! TA.AperFunction,ComponentPad*
%ADD11C,2.400000*%
G04 #@! TD*
G04 #@! TA.AperFunction,ComponentPad*
%ADD12O,2.400000X2.400000*%
G04 #@! TD*
G04 #@! TA.AperFunction,ComponentPad*
%ADD13C,1.400000*%
G04 #@! TD*
G04 #@! TA.AperFunction,ComponentPad*
%ADD14C,1.524000*%
G04 #@! TD*
G04 #@! TA.AperFunction,SMDPad,CuDef*
%ADD15RoundRect,0.020000X-0.430000X-0.180000X0.430000X-0.180000X0.430000X0.180000X-0.430000X0.180000X0*%
G04 #@! TD*
G04 #@! TA.AperFunction,Conductor*
%ADD16C,0.400000*%
G04 #@! TD*
G04 #@! TA.AperFunction,Conductor*
%ADD17C,1.000000*%
G04 #@! TD*
G04 APERTURE END LIST*
D10*
X74193400Y-44754800D03*
D11*
X69342000Y-24434800D03*
D12*
X69342000Y-44754800D03*
D10*
X74193400Y-24434800D03*
D13*
X63703200Y-34874200D03*
X54889400Y-32080200D03*
X54889400Y-34848800D03*
X54889400Y-37617400D03*
D14*
X54889400Y-26568400D03*
X57429400Y-26568400D03*
X54889400Y-43561000D03*
X57429400Y-43561000D03*
D13*
X63703200Y-32105600D03*
X63703200Y-37642800D03*
D15*
X58386800Y-33944800D03*
X58386800Y-34594800D03*
X58386800Y-35244800D03*
X60586800Y-35244800D03*
X60586800Y-34594800D03*
X60586800Y-33944800D03*
D16*
X56754000Y-33944800D02*
X54889400Y-32080200D01*
X58386800Y-33944800D02*
X56754000Y-33944800D01*
X55143400Y-34594800D02*
X58386800Y-34594800D01*
X54889400Y-34848800D02*
X55143400Y-34594800D01*
X57262000Y-35244800D02*
X58386800Y-35244800D01*
D17*
X54889400Y-40970200D02*
X54889400Y-37617400D01*
X54965600Y-41046400D02*
X54889400Y-40970200D01*
X54965600Y-41097200D02*
X54965600Y-41046400D01*
X57429400Y-43561000D02*
X54965600Y-41097200D01*
D16*
X54889400Y-37617400D02*
X57262000Y-35244800D01*
X60586800Y-33944800D02*
X61864000Y-33944800D01*
D17*
X57429400Y-26568400D02*
X62153800Y-26568400D01*
X63703200Y-28117800D02*
X63703200Y-32105600D01*
D16*
X61864000Y-33944800D02*
X63703200Y-32105600D01*
D17*
X62153800Y-26568400D02*
X63703200Y-28117800D01*
D16*
X63423800Y-34594800D02*
X63703200Y-34874200D01*
D17*
X69342000Y-24434800D02*
X69342000Y-29235400D01*
X69342000Y-29235400D02*
X63703200Y-34874200D01*
D16*
X60586800Y-34594800D02*
X63423800Y-34594800D01*
D17*
X69342000Y-24434800D02*
X74193400Y-24434800D01*
X69342000Y-44754800D02*
X69342000Y-43281600D01*
X69342000Y-44754800D02*
X74193400Y-44754800D01*
D16*
X61305200Y-35244800D02*
X63703200Y-37642800D01*
D17*
X69342000Y-43281600D02*
X63703200Y-37642800D01*
D16*
X60586800Y-35244800D02*
X61305200Y-35244800D01*
G04 #@! TA.AperFunction,Conductor*
G36*
X77370272Y-20861018D02*
G01*
X77409337Y-20865207D01*
X77418169Y-20863621D01*
X77418173Y-20863621D01*
X77425038Y-20862388D01*
X77449884Y-20860430D01*
X77640080Y-20864324D01*
X77657160Y-20865842D01*
X77758855Y-20881909D01*
X77870674Y-20899576D01*
X77887394Y-20903399D01*
X78094360Y-20965822D01*
X78110405Y-20971881D01*
X78306972Y-21061831D01*
X78322034Y-21070005D01*
X78504574Y-21185823D01*
X78518389Y-21195971D01*
X78683510Y-21335506D01*
X78695809Y-21347426D01*
X78840454Y-21508097D01*
X78851026Y-21521584D01*
X78972501Y-21700398D01*
X78981151Y-21715208D01*
X79077215Y-21908858D01*
X79083773Y-21924704D01*
X79117539Y-22025160D01*
X79152648Y-22129611D01*
X79156993Y-22146202D01*
X79191224Y-22326087D01*
X79192816Y-22346793D01*
X79193424Y-22352417D01*
X79193114Y-22361390D01*
X79194891Y-22368349D01*
X79195366Y-22377170D01*
X79195366Y-47582120D01*
X79195110Y-47586251D01*
X79194061Y-47590103D01*
X79194228Y-47599081D01*
X79194358Y-47606100D01*
X79192360Y-47630910D01*
X79183087Y-47682074D01*
X79157884Y-47821128D01*
X79153706Y-47837688D01*
X79085774Y-48046199D01*
X79079395Y-48062043D01*
X78983885Y-48259457D01*
X78975422Y-48274292D01*
X78854091Y-48456977D01*
X78843699Y-48470531D01*
X78698779Y-48635124D01*
X78686650Y-48647148D01*
X78520801Y-48790633D01*
X78507156Y-48800907D01*
X78323427Y-48920642D01*
X78308525Y-48928973D01*
X78110272Y-49022771D01*
X78094391Y-49029005D01*
X77972336Y-49067599D01*
X77885287Y-49095124D01*
X77868690Y-49099158D01*
X77652570Y-49136390D01*
X77635581Y-49138142D01*
X77605238Y-49139203D01*
X77449615Y-49144643D01*
X77428099Y-49143000D01*
X77423121Y-49142776D01*
X77414303Y-49141104D01*
X77373615Y-49145069D01*
X77372098Y-49145217D01*
X77359877Y-49145811D01*
X52447881Y-49145811D01*
X52425614Y-49143828D01*
X52418164Y-49142490D01*
X52418162Y-49142490D01*
X52409329Y-49140904D01*
X52394019Y-49142546D01*
X52368700Y-49142702D01*
X52185123Y-49125299D01*
X52167412Y-49122334D01*
X52071524Y-49099158D01*
X51963504Y-49073049D01*
X51946399Y-49067599D01*
X51751558Y-48989824D01*
X51735397Y-48981995D01*
X51553607Y-48877320D01*
X51538723Y-48867274D01*
X51373647Y-48737811D01*
X51360342Y-48725750D01*
X51215349Y-48574136D01*
X51203895Y-48560307D01*
X51081932Y-48389628D01*
X51072559Y-48374311D01*
X51048538Y-48327922D01*
X50976090Y-48188014D01*
X50968992Y-48171523D01*
X50899992Y-47973415D01*
X50895309Y-47956080D01*
X50855170Y-47750173D01*
X50852999Y-47732348D01*
X50851915Y-47710629D01*
X50844167Y-47555450D01*
X50845353Y-47536663D01*
X50845609Y-47529067D01*
X50847181Y-47520224D01*
X50842985Y-47481732D01*
X50842243Y-47468078D01*
X50842243Y-44619777D01*
X54195177Y-44619777D01*
X54204474Y-44631793D01*
X54247469Y-44661898D01*
X54256955Y-44667376D01*
X54448393Y-44756645D01*
X54458685Y-44760391D01*
X54662709Y-44815059D01*
X54673504Y-44816962D01*
X54883925Y-44835372D01*
X54894875Y-44835372D01*
X55105296Y-44816962D01*
X55116091Y-44815059D01*
X55320115Y-44760391D01*
X55330407Y-44756645D01*
X55521845Y-44667376D01*
X55531331Y-44661898D01*
X55575164Y-44631207D01*
X55583539Y-44620729D01*
X55576471Y-44607281D01*
X54902212Y-43933022D01*
X54888268Y-43925408D01*
X54886435Y-43925539D01*
X54879820Y-43929790D01*
X54201607Y-44608003D01*
X54195177Y-44619777D01*
X50842243Y-44619777D01*
X50842243Y-43566475D01*
X53615028Y-43566475D01*
X53633438Y-43776896D01*
X53635341Y-43787691D01*
X53690009Y-43991715D01*
X53693755Y-44002007D01*
X53783023Y-44193441D01*
X53788503Y-44202932D01*
X53819194Y-44246765D01*
X53829671Y-44255140D01*
X53843118Y-44248072D01*
X54517378Y-43573812D01*
X54524992Y-43559868D01*
X54524861Y-43558035D01*
X54520610Y-43551420D01*
X53842397Y-42873207D01*
X53830623Y-42866777D01*
X53818607Y-42876074D01*
X53788503Y-42919068D01*
X53783023Y-42928559D01*
X53693755Y-43119993D01*
X53690009Y-43130285D01*
X53635341Y-43334309D01*
X53633438Y-43345104D01*
X53615028Y-43555525D01*
X53615028Y-43566475D01*
X50842243Y-43566475D01*
X50842243Y-37617400D01*
X53676284Y-37617400D01*
X53694714Y-37828055D01*
X53696138Y-37833368D01*
X53696138Y-37833370D01*
X53700052Y-37847975D01*
X53749444Y-38032310D01*
X53838811Y-38223958D01*
X53841963Y-38228460D01*
X53841965Y-38228463D01*
X53858114Y-38251526D01*
X53880900Y-38323796D01*
X53880900Y-40908357D01*
X53880163Y-40921964D01*
X53876076Y-40959588D01*
X53876613Y-40965723D01*
X53880450Y-41009588D01*
X53880779Y-41014414D01*
X53880900Y-41016886D01*
X53880900Y-41019969D01*
X53881201Y-41023037D01*
X53885090Y-41062706D01*
X53885212Y-41064019D01*
X53893313Y-41156613D01*
X53894800Y-41161732D01*
X53895320Y-41167033D01*
X53922191Y-41256034D01*
X53922526Y-41257167D01*
X53948491Y-41346536D01*
X53950944Y-41351268D01*
X53952484Y-41356369D01*
X53955378Y-41361812D01*
X53996131Y-41438460D01*
X53996743Y-41439626D01*
X54039508Y-41522126D01*
X54042831Y-41526289D01*
X54045334Y-41530996D01*
X54062190Y-41551664D01*
X54076407Y-41573308D01*
X54115708Y-41649126D01*
X54119031Y-41653289D01*
X54121534Y-41657996D01*
X54180355Y-41730118D01*
X54181046Y-41730974D01*
X54212338Y-41770173D01*
X54214842Y-41772677D01*
X54215484Y-41773395D01*
X54219185Y-41777728D01*
X54246535Y-41811262D01*
X54281867Y-41840491D01*
X54290637Y-41848473D01*
X54576530Y-42134366D01*
X54610556Y-42196678D01*
X54605491Y-42267493D01*
X54562944Y-42324329D01*
X54520045Y-42345168D01*
X54458687Y-42361608D01*
X54448393Y-42365355D01*
X54256959Y-42454623D01*
X54247468Y-42460103D01*
X54203635Y-42490794D01*
X54195260Y-42501271D01*
X54202328Y-42514718D01*
X55936403Y-44248793D01*
X55948177Y-44255223D01*
X55960193Y-44245926D01*
X55990297Y-44202932D01*
X55995777Y-44193441D01*
X56044929Y-44088035D01*
X56091847Y-44034750D01*
X56160124Y-44015289D01*
X56228084Y-44035831D01*
X56273319Y-44088035D01*
X56322586Y-44193689D01*
X56322589Y-44193694D01*
X56324912Y-44198676D01*
X56328068Y-44203183D01*
X56328069Y-44203185D01*
X56364507Y-44255223D01*
X56452423Y-44380781D01*
X56609619Y-44537977D01*
X56614127Y-44541134D01*
X56614130Y-44541136D01*
X56689895Y-44594187D01*
X56791723Y-44665488D01*
X56796705Y-44667811D01*
X56796710Y-44667814D01*
X56887074Y-44709951D01*
X56993204Y-44759440D01*
X56998512Y-44760862D01*
X56998514Y-44760863D01*
X57064349Y-44778503D01*
X57207937Y-44816978D01*
X57429400Y-44836353D01*
X57650863Y-44816978D01*
X57794451Y-44778503D01*
X57860286Y-44760863D01*
X57860288Y-44760862D01*
X57865596Y-44759440D01*
X57971726Y-44709951D01*
X58062090Y-44667814D01*
X58062095Y-44667811D01*
X58067077Y-44665488D01*
X58168905Y-44594187D01*
X58244670Y-44541136D01*
X58244673Y-44541134D01*
X58249181Y-44537977D01*
X58406377Y-44380781D01*
X58494294Y-44255223D01*
X58530731Y-44203185D01*
X58530732Y-44203183D01*
X58533888Y-44198676D01*
X58536211Y-44193694D01*
X58536214Y-44193689D01*
X58625517Y-44002178D01*
X58625518Y-44002177D01*
X58627840Y-43997196D01*
X58633257Y-43976982D01*
X58683954Y-43787776D01*
X58685378Y-43782463D01*
X58704753Y-43561000D01*
X58685378Y-43339537D01*
X58627840Y-43124804D01*
X58616889Y-43101319D01*
X58536214Y-42928311D01*
X58536211Y-42928306D01*
X58533888Y-42923324D01*
X58510545Y-42889986D01*
X58409536Y-42745730D01*
X58409534Y-42745727D01*
X58406377Y-42741219D01*
X58249181Y-42584023D01*
X58244673Y-42580866D01*
X58244670Y-42580864D01*
X58168905Y-42527813D01*
X58067077Y-42456512D01*
X58062095Y-42454189D01*
X58062090Y-42454186D01*
X57870578Y-42364883D01*
X57870577Y-42364882D01*
X57865596Y-42362560D01*
X57860288Y-42361138D01*
X57860286Y-42361137D01*
X57656175Y-42306445D01*
X57656171Y-42306444D01*
X57650863Y-42305022D01*
X57645390Y-42304543D01*
X57645383Y-42304542D01*
X57640887Y-42304149D01*
X57640437Y-42304110D01*
X57574318Y-42278250D01*
X57562318Y-42267684D01*
X55934805Y-40640171D01*
X55900779Y-40577859D01*
X55897900Y-40551076D01*
X55897900Y-38323796D01*
X55920686Y-38251526D01*
X55936835Y-38228463D01*
X55936837Y-38228460D01*
X55939989Y-38223958D01*
X56029356Y-38032310D01*
X56078749Y-37847975D01*
X56082662Y-37833370D01*
X56082662Y-37833368D01*
X56084086Y-37828055D01*
X56102516Y-37617400D01*
X56090650Y-37481771D01*
X56104639Y-37412166D01*
X56127076Y-37381694D01*
X56820672Y-36688099D01*
X57518566Y-35990205D01*
X57580878Y-35956179D01*
X57607661Y-35953300D01*
X58429803Y-35953300D01*
X58429806Y-35953299D01*
X58857860Y-35953299D01*
X58861618Y-35952844D01*
X58861623Y-35952844D01*
X58936017Y-35943842D01*
X58944050Y-35942870D01*
X58951573Y-35939892D01*
X58951575Y-35939891D01*
X59001557Y-35920102D01*
X59078682Y-35889566D01*
X59194020Y-35802020D01*
X59281566Y-35686682D01*
X59334870Y-35552050D01*
X59345300Y-35465861D01*
X59345299Y-35023740D01*
X59344844Y-35019974D01*
X59334870Y-34937550D01*
X59336906Y-34937304D01*
X59336903Y-34902235D01*
X59334380Y-34901930D01*
X59344344Y-34819587D01*
X59344756Y-34812765D01*
X59340325Y-34797676D01*
X59338935Y-34796471D01*
X59318017Y-34791921D01*
X59318625Y-34789125D01*
X59269830Y-34774798D01*
X59237588Y-34744979D01*
X59199211Y-34694419D01*
X59194020Y-34687580D01*
X59188349Y-34683275D01*
X59154661Y-34621583D01*
X59159726Y-34550768D01*
X59188232Y-34506414D01*
X59194020Y-34502020D01*
X59237588Y-34444621D01*
X59294706Y-34402454D01*
X59309586Y-34399820D01*
X59341923Y-34390325D01*
X59343128Y-34388935D01*
X59344799Y-34381252D01*
X59344799Y-34377575D01*
X59344343Y-34370015D01*
X59334380Y-34287670D01*
X59336917Y-34287363D01*
X59336913Y-34252297D01*
X59334870Y-34252050D01*
X59335423Y-34247477D01*
X59345300Y-34165861D01*
X59345299Y-33723740D01*
X59344844Y-33719974D01*
X59335842Y-33645583D01*
X59334870Y-33637550D01*
X59281566Y-33502918D01*
X59194020Y-33387580D01*
X59078682Y-33300034D01*
X58999697Y-33268762D01*
X58951580Y-33249711D01*
X58951578Y-33249710D01*
X58944050Y-33246730D01*
X58857861Y-33236300D01*
X57099662Y-33236300D01*
X57031541Y-33216298D01*
X57010567Y-33199396D01*
X56127076Y-32315906D01*
X56093051Y-32253593D01*
X56090650Y-32215828D01*
X56102037Y-32085675D01*
X56102516Y-32080200D01*
X56084086Y-31869545D01*
X56029356Y-31665290D01*
X55954158Y-31504027D01*
X55942312Y-31478623D01*
X55942310Y-31478620D01*
X55939989Y-31473642D01*
X55818701Y-31300424D01*
X55669176Y-31150899D01*
X55495958Y-31029611D01*
X55490980Y-31027290D01*
X55490977Y-31027288D01*
X55309292Y-30942567D01*
X55309291Y-30942566D01*
X55304310Y-30940244D01*
X55299002Y-30938822D01*
X55299000Y-30938821D01*
X55105370Y-30886938D01*
X55105368Y-30886938D01*
X55100055Y-30885514D01*
X54889400Y-30867084D01*
X54678745Y-30885514D01*
X54673432Y-30886938D01*
X54673430Y-30886938D01*
X54479800Y-30938821D01*
X54479798Y-30938822D01*
X54474490Y-30940244D01*
X54469509Y-30942566D01*
X54469508Y-30942567D01*
X54287823Y-31027288D01*
X54287820Y-31027290D01*
X54282842Y-31029611D01*
X54109624Y-31150899D01*
X53960099Y-31300424D01*
X53838811Y-31473642D01*
X53836490Y-31478620D01*
X53836488Y-31478623D01*
X53824642Y-31504027D01*
X53749444Y-31665290D01*
X53694714Y-31869545D01*
X53676284Y-32080200D01*
X53694714Y-32290855D01*
X53749444Y-32495110D01*
X53838811Y-32686758D01*
X53960099Y-32859976D01*
X54109624Y-33009501D01*
X54282842Y-33130789D01*
X54287820Y-33133110D01*
X54287823Y-33133112D01*
X54429968Y-33199395D01*
X54474490Y-33220156D01*
X54479798Y-33221578D01*
X54479800Y-33221579D01*
X54673430Y-33273462D01*
X54673432Y-33273462D01*
X54678745Y-33274886D01*
X54889400Y-33293316D01*
X54894875Y-33292837D01*
X55025029Y-33281450D01*
X55094634Y-33295439D01*
X55125106Y-33317876D01*
X55261783Y-33454553D01*
X55295809Y-33516865D01*
X55290744Y-33587680D01*
X55248197Y-33644516D01*
X55181677Y-33669327D01*
X55140077Y-33665355D01*
X55105281Y-33656031D01*
X55094491Y-33654129D01*
X54894875Y-33636665D01*
X54883925Y-33636665D01*
X54684309Y-33654129D01*
X54673522Y-33656031D01*
X54479971Y-33707893D01*
X54469677Y-33711641D01*
X54288077Y-33796321D01*
X54278589Y-33801799D01*
X54248152Y-33823111D01*
X54239777Y-33833588D01*
X54246846Y-33847036D01*
X55159515Y-34759705D01*
X55193541Y-34822017D01*
X55188476Y-34892832D01*
X55159515Y-34937895D01*
X54246124Y-35851286D01*
X54239694Y-35863061D01*
X54248990Y-35875076D01*
X54278589Y-35895801D01*
X54288077Y-35901279D01*
X54469677Y-35985959D01*
X54479971Y-35989707D01*
X54673522Y-36041569D01*
X54684309Y-36043471D01*
X54883925Y-36060935D01*
X54894875Y-36060935D01*
X55094491Y-36043471D01*
X55105281Y-36041569D01*
X55140077Y-36032245D01*
X55211053Y-36033935D01*
X55269849Y-36073729D01*
X55297797Y-36138993D01*
X55286024Y-36209007D01*
X55261783Y-36243047D01*
X55125106Y-36379724D01*
X55062794Y-36413750D01*
X55025029Y-36416150D01*
X54894875Y-36404763D01*
X54889400Y-36404284D01*
X54678745Y-36422714D01*
X54673432Y-36424138D01*
X54673430Y-36424138D01*
X54479800Y-36476021D01*
X54479798Y-36476022D01*
X54474490Y-36477444D01*
X54469509Y-36479766D01*
X54469508Y-36479767D01*
X54287823Y-36564488D01*
X54287820Y-36564490D01*
X54282842Y-36566811D01*
X54109624Y-36688099D01*
X53960099Y-36837624D01*
X53838811Y-37010842D01*
X53836490Y-37015820D01*
X53836488Y-37015823D01*
X53824644Y-37041223D01*
X53749444Y-37202490D01*
X53694714Y-37406745D01*
X53676284Y-37617400D01*
X50842243Y-37617400D01*
X50842243Y-34854275D01*
X53677265Y-34854275D01*
X53694729Y-35053891D01*
X53696631Y-35064678D01*
X53748493Y-35258229D01*
X53752241Y-35268523D01*
X53836921Y-35450123D01*
X53842399Y-35459611D01*
X53863711Y-35490048D01*
X53874188Y-35498423D01*
X53887636Y-35491354D01*
X54517378Y-34861612D01*
X54524992Y-34847668D01*
X54524861Y-34845835D01*
X54520610Y-34839220D01*
X53886914Y-34205524D01*
X53875139Y-34199094D01*
X53863124Y-34208390D01*
X53842399Y-34237989D01*
X53836921Y-34247477D01*
X53752241Y-34429077D01*
X53748493Y-34439371D01*
X53696631Y-34632922D01*
X53694729Y-34643709D01*
X53677265Y-34843325D01*
X53677265Y-34854275D01*
X50842243Y-34854275D01*
X50842243Y-27627177D01*
X54195177Y-27627177D01*
X54204474Y-27639193D01*
X54247469Y-27669298D01*
X54256955Y-27674776D01*
X54448393Y-27764045D01*
X54458685Y-27767791D01*
X54662709Y-27822459D01*
X54673504Y-27824362D01*
X54883925Y-27842772D01*
X54894875Y-27842772D01*
X55105296Y-27824362D01*
X55116091Y-27822459D01*
X55320115Y-27767791D01*
X55330407Y-27764045D01*
X55521845Y-27674776D01*
X55531331Y-27669298D01*
X55575164Y-27638607D01*
X55583539Y-27628129D01*
X55576471Y-27614681D01*
X54902212Y-26940422D01*
X54888268Y-26932808D01*
X54886435Y-26932939D01*
X54879820Y-26937190D01*
X54201607Y-27615403D01*
X54195177Y-27627177D01*
X50842243Y-27627177D01*
X50842243Y-26573875D01*
X53615028Y-26573875D01*
X53633438Y-26784296D01*
X53635341Y-26795091D01*
X53690009Y-26999115D01*
X53693755Y-27009407D01*
X53783023Y-27200841D01*
X53788503Y-27210332D01*
X53819194Y-27254165D01*
X53829671Y-27262540D01*
X53843118Y-27255472D01*
X54517378Y-26581212D01*
X54523756Y-26569532D01*
X55253808Y-26569532D01*
X55253939Y-26571365D01*
X55258190Y-26577980D01*
X55936403Y-27256193D01*
X55948177Y-27262623D01*
X55960193Y-27253326D01*
X55990297Y-27210332D01*
X55995777Y-27200841D01*
X56044929Y-27095435D01*
X56091847Y-27042150D01*
X56160124Y-27022689D01*
X56228084Y-27043231D01*
X56273319Y-27095435D01*
X56322586Y-27201089D01*
X56322589Y-27201094D01*
X56324912Y-27206076D01*
X56328068Y-27210583D01*
X56328069Y-27210585D01*
X56442846Y-27374503D01*
X56452423Y-27388181D01*
X56609619Y-27545377D01*
X56614127Y-27548534D01*
X56614130Y-27548536D01*
X56646705Y-27571345D01*
X56791723Y-27672888D01*
X56796705Y-27675211D01*
X56796710Y-27675214D01*
X56987210Y-27764045D01*
X56993204Y-27766840D01*
X56998512Y-27768262D01*
X56998514Y-27768263D01*
X57064349Y-27785903D01*
X57207937Y-27824378D01*
X57429400Y-27843753D01*
X57650863Y-27824378D01*
X57794451Y-27785903D01*
X57860286Y-27768263D01*
X57860288Y-27768262D01*
X57865596Y-27766840D01*
X57871590Y-27764045D01*
X58062090Y-27675214D01*
X58062095Y-27675211D01*
X58067077Y-27672888D01*
X58101259Y-27648954D01*
X58171619Y-27599687D01*
X58243890Y-27576900D01*
X61683875Y-27576900D01*
X61751996Y-27596902D01*
X61772970Y-27613805D01*
X62657795Y-28498630D01*
X62691821Y-28560942D01*
X62694700Y-28587725D01*
X62694700Y-31399204D01*
X62671914Y-31471474D01*
X62652611Y-31499042D01*
X62563244Y-31690690D01*
X62561822Y-31695998D01*
X62561821Y-31696000D01*
X62509938Y-31889630D01*
X62508514Y-31894945D01*
X62490084Y-32105600D01*
X62490563Y-32111075D01*
X62501950Y-32241229D01*
X62487961Y-32310834D01*
X62465524Y-32341306D01*
X61607435Y-33199395D01*
X61545123Y-33233421D01*
X61518340Y-33236300D01*
X60543797Y-33236300D01*
X60543794Y-33236301D01*
X60115740Y-33236301D01*
X60111982Y-33236756D01*
X60111977Y-33236756D01*
X60037591Y-33245757D01*
X60029550Y-33246730D01*
X60022027Y-33249708D01*
X60022025Y-33249709D01*
X59972043Y-33269498D01*
X59894918Y-33300034D01*
X59779580Y-33387580D01*
X59692034Y-33502918D01*
X59638730Y-33637550D01*
X59628300Y-33723739D01*
X59628301Y-34165860D01*
X59628756Y-34169618D01*
X59628756Y-34169623D01*
X59638730Y-34252050D01*
X59636431Y-34252328D01*
X59636432Y-34287272D01*
X59638730Y-34287550D01*
X59628300Y-34373739D01*
X59628301Y-34815860D01*
X59628756Y-34819618D01*
X59628756Y-34819623D01*
X59638730Y-34902050D01*
X59636431Y-34902328D01*
X59636432Y-34937272D01*
X59638730Y-34937550D01*
X59628300Y-35023739D01*
X59628301Y-35465860D01*
X59628756Y-35469618D01*
X59628756Y-35469623D01*
X59630649Y-35485263D01*
X59638730Y-35552050D01*
X59692034Y-35686682D01*
X59779580Y-35802020D01*
X59894918Y-35889566D01*
X59973903Y-35920838D01*
X60022020Y-35939889D01*
X60022022Y-35939890D01*
X60029550Y-35942870D01*
X60115739Y-35953300D01*
X60959540Y-35953300D01*
X61027661Y-35973302D01*
X61048635Y-35990205D01*
X62465524Y-37407094D01*
X62499550Y-37469406D01*
X62501950Y-37507171D01*
X62490084Y-37642800D01*
X62508514Y-37853455D01*
X62563244Y-38057710D01*
X62565566Y-38062691D01*
X62565567Y-38062692D01*
X62640767Y-38223958D01*
X62652611Y-38249358D01*
X62773899Y-38422576D01*
X62923424Y-38572101D01*
X63096642Y-38693389D01*
X63101620Y-38695710D01*
X63101623Y-38695712D01*
X63283308Y-38780433D01*
X63288290Y-38782756D01*
X63293598Y-38784178D01*
X63293600Y-38784179D01*
X63360543Y-38802116D01*
X63431394Y-38821100D01*
X63487877Y-38853712D01*
X65807094Y-41172928D01*
X68068803Y-43434637D01*
X68102829Y-43496949D01*
X68097764Y-43567764D01*
X68076582Y-43604301D01*
X67996268Y-43700869D01*
X67947183Y-43759887D01*
X67815447Y-43976982D01*
X67813638Y-43981296D01*
X67813637Y-43981298D01*
X67768879Y-44088035D01*
X67717246Y-44211165D01*
X67716095Y-44215697D01*
X67716094Y-44215700D01*
X67685017Y-44338067D01*
X67654738Y-44457290D01*
X67629296Y-44709951D01*
X67629520Y-44714617D01*
X67629520Y-44714622D01*
X67634345Y-44815059D01*
X67641480Y-44963598D01*
X67691021Y-45212657D01*
X67692600Y-45217055D01*
X67692602Y-45217062D01*
X67747719Y-45370575D01*
X67776831Y-45451658D01*
X67897025Y-45675351D01*
X67899820Y-45679094D01*
X67899822Y-45679097D01*
X68046171Y-45875082D01*
X68046176Y-45875088D01*
X68048963Y-45878820D01*
X68052272Y-45882100D01*
X68052277Y-45882106D01*
X68150859Y-45979831D01*
X68229307Y-46057597D01*
X68233069Y-46060355D01*
X68233072Y-46060358D01*
X68338764Y-46137854D01*
X68434094Y-46207753D01*
X68438229Y-46209929D01*
X68438233Y-46209931D01*
X68556289Y-46272043D01*
X68658827Y-46325991D01*
X68898568Y-46409712D01*
X69148050Y-46457078D01*
X69268532Y-46461811D01*
X69397125Y-46466864D01*
X69397130Y-46466864D01*
X69401793Y-46467047D01*
X69500774Y-46456207D01*
X69649569Y-46439912D01*
X69649575Y-46439911D01*
X69654222Y-46439402D01*
X69763680Y-46410584D01*
X69895273Y-46375938D01*
X69899793Y-46374748D01*
X70085476Y-46294973D01*
X70128807Y-46276357D01*
X70128810Y-46276355D01*
X70133110Y-46274508D01*
X70137090Y-46272045D01*
X70137094Y-46272043D01*
X70345064Y-46143347D01*
X70345066Y-46143345D01*
X70349047Y-46140882D01*
X70447428Y-46057597D01*
X70539289Y-45979831D01*
X70539291Y-45979829D01*
X70542862Y-45976806D01*
X70692459Y-45806223D01*
X70752411Y-45768195D01*
X70787190Y-45763300D01*
X72626126Y-45763300D01*
X72694247Y-45783302D01*
X72727084Y-45813911D01*
X72824681Y-45944610D01*
X72827990Y-45947890D01*
X72827995Y-45947896D01*
X73012263Y-46130562D01*
X73015580Y-46133850D01*
X73019342Y-46136608D01*
X73019345Y-46136611D01*
X73131699Y-46218992D01*
X73232354Y-46292795D01*
X73236489Y-46294971D01*
X73236493Y-46294973D01*
X73456232Y-46410584D01*
X73470240Y-46417954D01*
X73724013Y-46506575D01*
X73728606Y-46507447D01*
X73983509Y-46555842D01*
X73983512Y-46555842D01*
X73988098Y-46556713D01*
X74115770Y-46561729D01*
X74252025Y-46567083D01*
X74252030Y-46567083D01*
X74256693Y-46567266D01*
X74361007Y-46555842D01*
X74519244Y-46538513D01*
X74519250Y-46538512D01*
X74523897Y-46538003D01*
X74528421Y-46536812D01*
X74779318Y-46470756D01*
X74779320Y-46470755D01*
X74783841Y-46469565D01*
X74790887Y-46466538D01*
X75026520Y-46365302D01*
X75026522Y-46365301D01*
X75030814Y-46363457D01*
X75178538Y-46272043D01*
X75255417Y-46224469D01*
X75255421Y-46224466D01*
X75259390Y-46222010D01*
X75464549Y-46048330D01*
X75641782Y-45846234D01*
X75680601Y-45785884D01*
X75784669Y-45624091D01*
X75787197Y-45620161D01*
X75897599Y-45375078D01*
X75970563Y-45116368D01*
X75989998Y-44963598D01*
X76004088Y-44852845D01*
X76004088Y-44852841D01*
X76004486Y-44849715D01*
X76004849Y-44835874D01*
X76006812Y-44760863D01*
X76006971Y-44754800D01*
X75987050Y-44486737D01*
X75963075Y-44380781D01*
X75928761Y-44229131D01*
X75928760Y-44229126D01*
X75927727Y-44224563D01*
X75830302Y-43974038D01*
X75696918Y-43740664D01*
X75685632Y-43726347D01*
X75630816Y-43656814D01*
X75530505Y-43529569D01*
X75334717Y-43345391D01*
X75113857Y-43192174D01*
X75109664Y-43190106D01*
X74876964Y-43075351D01*
X74876961Y-43075350D01*
X74872776Y-43073286D01*
X74825145Y-43058039D01*
X74771021Y-43040714D01*
X74616770Y-42991338D01*
X74612163Y-42990588D01*
X74612160Y-42990587D01*
X74356074Y-42948881D01*
X74356075Y-42948881D01*
X74351463Y-42948130D01*
X74221119Y-42946424D01*
X74087361Y-42944673D01*
X74087358Y-42944673D01*
X74082684Y-42944612D01*
X73816337Y-42980860D01*
X73558274Y-43056078D01*
X73314163Y-43168615D01*
X73310254Y-43171178D01*
X73093281Y-43313431D01*
X73093276Y-43313435D01*
X73089368Y-43315997D01*
X72888826Y-43494988D01*
X72717597Y-43700869D01*
X72658660Y-43740453D01*
X72620723Y-43746300D01*
X70783734Y-43746300D01*
X70715613Y-43726298D01*
X70684784Y-43698306D01*
X70666734Y-43675410D01*
X70605171Y-43597317D01*
X70420209Y-43423323D01*
X70408155Y-43414961D01*
X70363587Y-43359698D01*
X70355672Y-43304508D01*
X70354594Y-43304497D01*
X70354659Y-43298337D01*
X70355324Y-43292211D01*
X70350950Y-43242209D01*
X70350621Y-43237384D01*
X70350500Y-43234913D01*
X70350500Y-43231831D01*
X70348297Y-43209363D01*
X70346309Y-43189089D01*
X70346187Y-43187774D01*
X70338623Y-43101319D01*
X70338087Y-43095187D01*
X70336600Y-43090068D01*
X70336080Y-43084767D01*
X70309218Y-42995794D01*
X70308862Y-42994594D01*
X70294524Y-42945243D01*
X70282909Y-42905263D01*
X70280455Y-42900529D01*
X70278916Y-42895431D01*
X70267099Y-42873207D01*
X70235316Y-42813431D01*
X70234702Y-42812263D01*
X70194726Y-42735141D01*
X70194725Y-42735140D01*
X70191892Y-42729674D01*
X70188569Y-42725511D01*
X70186066Y-42720804D01*
X70127263Y-42648705D01*
X70126500Y-42647760D01*
X70095261Y-42608627D01*
X70092770Y-42606136D01*
X70092120Y-42605409D01*
X70088408Y-42601063D01*
X70064955Y-42572308D01*
X70061065Y-42567538D01*
X70056323Y-42563615D01*
X70056321Y-42563613D01*
X70025727Y-42538303D01*
X70016947Y-42530313D01*
X64914113Y-37427479D01*
X64881501Y-37370995D01*
X64844579Y-37233200D01*
X64844578Y-37233198D01*
X64843156Y-37227890D01*
X64753789Y-37036242D01*
X64632501Y-36863024D01*
X64482976Y-36713499D01*
X64309758Y-36592211D01*
X64304780Y-36589890D01*
X64304777Y-36589888D01*
X64123092Y-36505167D01*
X64123091Y-36505166D01*
X64118110Y-36502844D01*
X64112802Y-36501422D01*
X64112800Y-36501421D01*
X63919170Y-36449538D01*
X63919168Y-36449538D01*
X63913855Y-36448114D01*
X63703200Y-36429684D01*
X63697725Y-36430163D01*
X63567571Y-36441550D01*
X63497966Y-36427561D01*
X63467494Y-36405124D01*
X63331523Y-36269153D01*
X63297497Y-36206841D01*
X63302562Y-36136026D01*
X63345109Y-36079190D01*
X63411629Y-36054379D01*
X63453230Y-36058352D01*
X63487223Y-36067461D01*
X63487234Y-36067463D01*
X63492545Y-36068886D01*
X63703200Y-36087316D01*
X63913855Y-36068886D01*
X63919168Y-36067462D01*
X63919170Y-36067462D01*
X64112800Y-36015579D01*
X64112802Y-36015578D01*
X64118110Y-36014156D01*
X64205722Y-35973302D01*
X64304777Y-35927112D01*
X64304780Y-35927110D01*
X64309758Y-35924789D01*
X64482976Y-35803501D01*
X64632501Y-35653976D01*
X64753789Y-35480758D01*
X64758982Y-35469623D01*
X64840833Y-35294092D01*
X64840834Y-35294091D01*
X64843156Y-35289110D01*
X64881500Y-35146006D01*
X64914112Y-35089523D01*
X70011379Y-29992255D01*
X70021522Y-29983153D01*
X70046218Y-29963297D01*
X70051025Y-29959432D01*
X70083320Y-29920944D01*
X70086478Y-29917325D01*
X70088124Y-29915510D01*
X70090309Y-29913325D01*
X70092264Y-29910945D01*
X70092273Y-29910935D01*
X70117549Y-29880164D01*
X70118391Y-29879149D01*
X70174194Y-29812645D01*
X70178154Y-29807926D01*
X70180723Y-29803252D01*
X70184102Y-29799139D01*
X70227975Y-29717315D01*
X70228584Y-29716193D01*
X70270464Y-29640014D01*
X70270465Y-29640012D01*
X70273433Y-29634613D01*
X70275045Y-29629531D01*
X70277562Y-29624837D01*
X70304762Y-29535869D01*
X70305108Y-29534758D01*
X70331373Y-29451963D01*
X70333235Y-29446094D01*
X70333829Y-29440798D01*
X70335387Y-29435702D01*
X70344790Y-29343143D01*
X70344911Y-29342007D01*
X70350500Y-29292173D01*
X70350500Y-29288646D01*
X70350555Y-29287661D01*
X70351002Y-29281981D01*
X70355374Y-29238938D01*
X70351059Y-29193291D01*
X70350500Y-29181433D01*
X70350500Y-25878072D01*
X70370502Y-25809951D01*
X70395086Y-25781907D01*
X70542862Y-25656806D01*
X70692459Y-25486223D01*
X70752411Y-25448195D01*
X70787190Y-25443300D01*
X72626126Y-25443300D01*
X72694247Y-25463302D01*
X72727084Y-25493911D01*
X72824681Y-25624610D01*
X72827990Y-25627890D01*
X72827995Y-25627896D01*
X72977637Y-25776237D01*
X73015580Y-25813850D01*
X73019342Y-25816608D01*
X73019345Y-25816611D01*
X73109391Y-25882635D01*
X73232354Y-25972795D01*
X73236489Y-25974971D01*
X73236493Y-25974973D01*
X73463960Y-26094650D01*
X73470240Y-26097954D01*
X73724013Y-26186575D01*
X73728606Y-26187447D01*
X73983509Y-26235842D01*
X73983512Y-26235842D01*
X73988098Y-26236713D01*
X74115770Y-26241729D01*
X74252025Y-26247083D01*
X74252030Y-26247083D01*
X74256693Y-26247266D01*
X74361007Y-26235842D01*
X74519244Y-26218513D01*
X74519250Y-26218512D01*
X74523897Y-26218003D01*
X74528421Y-26216812D01*
X74779318Y-26150756D01*
X74779320Y-26150755D01*
X74783841Y-26149565D01*
X74788138Y-26147719D01*
X75026520Y-26045302D01*
X75026522Y-26045301D01*
X75030814Y-26043457D01*
X75212989Y-25930724D01*
X75255417Y-25904469D01*
X75255421Y-25904466D01*
X75259390Y-25902010D01*
X75464549Y-25728330D01*
X75641782Y-25526234D01*
X75644430Y-25522118D01*
X75778076Y-25314341D01*
X75787197Y-25300161D01*
X75897599Y-25055078D01*
X75970563Y-24796368D01*
X75989998Y-24643598D01*
X76004088Y-24532845D01*
X76004088Y-24532841D01*
X76004486Y-24529715D01*
X76006971Y-24434800D01*
X75987050Y-24166737D01*
X75927727Y-23904563D01*
X75830302Y-23654038D01*
X75696918Y-23420664D01*
X75665547Y-23380869D01*
X75630816Y-23336814D01*
X75530505Y-23209569D01*
X75334717Y-23025391D01*
X75113857Y-22872174D01*
X75109664Y-22870106D01*
X74876964Y-22755351D01*
X74876961Y-22755350D01*
X74872776Y-22753286D01*
X74825145Y-22738039D01*
X74771021Y-22720714D01*
X74616770Y-22671338D01*
X74612163Y-22670588D01*
X74612160Y-22670587D01*
X74356074Y-22628881D01*
X74356075Y-22628881D01*
X74351463Y-22628130D01*
X74221119Y-22626424D01*
X74087361Y-22624673D01*
X74087358Y-22624673D01*
X74082684Y-22624612D01*
X73816337Y-22660860D01*
X73558274Y-22736078D01*
X73314163Y-22848615D01*
X73310254Y-22851178D01*
X73093281Y-22993431D01*
X73093276Y-22993435D01*
X73089368Y-22995997D01*
X72888826Y-23174988D01*
X72717597Y-23380869D01*
X72658660Y-23420453D01*
X72620723Y-23426300D01*
X70783734Y-23426300D01*
X70715613Y-23406298D01*
X70684784Y-23378306D01*
X70666734Y-23355410D01*
X70605171Y-23277317D01*
X70420209Y-23103323D01*
X70312492Y-23028597D01*
X70215393Y-22961237D01*
X70215390Y-22961235D01*
X70211561Y-22958579D01*
X70207384Y-22956519D01*
X70207377Y-22956515D01*
X69987996Y-22848328D01*
X69987992Y-22848327D01*
X69983810Y-22846264D01*
X69741960Y-22768847D01*
X69737355Y-22768097D01*
X69495935Y-22728780D01*
X69495934Y-22728780D01*
X69491323Y-22728029D01*
X69364364Y-22726367D01*
X69242083Y-22724766D01*
X69242080Y-22724766D01*
X69237406Y-22724705D01*
X68985787Y-22758949D01*
X68741993Y-22830008D01*
X68511380Y-22936322D01*
X68507471Y-22938885D01*
X68302928Y-23072989D01*
X68302923Y-23072993D01*
X68299015Y-23075555D01*
X68109562Y-23244648D01*
X67947183Y-23439887D01*
X67815447Y-23656982D01*
X67717246Y-23891165D01*
X67654738Y-24137290D01*
X67629296Y-24389951D01*
X67641480Y-24643598D01*
X67691021Y-24892657D01*
X67692600Y-24897055D01*
X67692602Y-24897062D01*
X67747719Y-25050575D01*
X67776831Y-25131658D01*
X67779048Y-25135784D01*
X67874990Y-25314341D01*
X67897025Y-25355351D01*
X67899820Y-25359094D01*
X67899822Y-25359097D01*
X68046171Y-25555082D01*
X68046176Y-25555088D01*
X68048963Y-25558820D01*
X68052272Y-25562100D01*
X68052277Y-25562106D01*
X68223005Y-25731350D01*
X68229307Y-25737597D01*
X68233069Y-25740355D01*
X68233072Y-25740358D01*
X68282005Y-25776237D01*
X68325113Y-25832648D01*
X68333500Y-25877849D01*
X68333500Y-28765476D01*
X68313498Y-28833597D01*
X68296595Y-28854571D01*
X65117780Y-32033386D01*
X65055468Y-32067412D01*
X64984653Y-32062347D01*
X64927817Y-32019800D01*
X64903164Y-31955273D01*
X64898365Y-31900425D01*
X64897886Y-31894945D01*
X64896462Y-31889630D01*
X64844579Y-31696000D01*
X64844578Y-31695998D01*
X64843156Y-31690690D01*
X64753789Y-31499042D01*
X64734486Y-31471474D01*
X64711700Y-31399204D01*
X64711700Y-28179640D01*
X64712437Y-28166032D01*
X64715859Y-28134536D01*
X64715859Y-28134532D01*
X64716524Y-28128411D01*
X64712150Y-28078409D01*
X64711821Y-28073584D01*
X64711700Y-28071113D01*
X64711700Y-28068031D01*
X64707509Y-28025289D01*
X64707387Y-28023974D01*
X64699823Y-27937519D01*
X64699287Y-27931387D01*
X64697800Y-27926268D01*
X64697280Y-27920967D01*
X64670399Y-27831933D01*
X64670064Y-27830800D01*
X64645827Y-27747378D01*
X64645825Y-27747374D01*
X64644108Y-27741463D01*
X64641657Y-27736734D01*
X64640116Y-27731631D01*
X64596430Y-27649469D01*
X64595883Y-27648427D01*
X64555928Y-27571345D01*
X64555927Y-27571344D01*
X64553092Y-27565874D01*
X64549769Y-27561711D01*
X64547266Y-27557004D01*
X64488463Y-27484905D01*
X64487700Y-27483960D01*
X64456461Y-27444827D01*
X64453970Y-27442336D01*
X64453320Y-27441609D01*
X64449608Y-27437263D01*
X64426155Y-27408508D01*
X64422265Y-27403738D01*
X64417523Y-27399815D01*
X64417521Y-27399813D01*
X64386927Y-27374503D01*
X64378147Y-27366513D01*
X62910655Y-25899021D01*
X62901553Y-25888878D01*
X62881697Y-25864182D01*
X62877832Y-25859375D01*
X62839378Y-25827108D01*
X62835731Y-25823928D01*
X62833919Y-25822285D01*
X62831725Y-25820091D01*
X62798451Y-25792758D01*
X62797653Y-25792096D01*
X62726326Y-25732246D01*
X62721656Y-25729678D01*
X62717539Y-25726297D01*
X62635714Y-25682423D01*
X62634555Y-25681794D01*
X62558419Y-25639938D01*
X62558411Y-25639935D01*
X62553013Y-25636967D01*
X62547931Y-25635355D01*
X62543237Y-25632838D01*
X62454269Y-25605638D01*
X62453241Y-25605318D01*
X62364494Y-25577165D01*
X62359198Y-25576571D01*
X62354102Y-25575013D01*
X62261543Y-25565610D01*
X62260407Y-25565489D01*
X62226792Y-25561719D01*
X62214070Y-25560292D01*
X62214066Y-25560292D01*
X62210573Y-25559900D01*
X62207046Y-25559900D01*
X62206061Y-25559845D01*
X62200381Y-25559398D01*
X62170975Y-25556411D01*
X62163463Y-25555648D01*
X62163461Y-25555648D01*
X62157338Y-25555026D01*
X62117203Y-25558820D01*
X62111691Y-25559341D01*
X62099833Y-25559900D01*
X58243890Y-25559900D01*
X58171619Y-25537113D01*
X58071586Y-25467069D01*
X58071584Y-25467068D01*
X58067077Y-25463912D01*
X58062095Y-25461589D01*
X58062090Y-25461586D01*
X57870578Y-25372283D01*
X57870577Y-25372282D01*
X57865596Y-25369960D01*
X57860288Y-25368538D01*
X57860286Y-25368537D01*
X57794451Y-25350897D01*
X57650863Y-25312422D01*
X57429400Y-25293047D01*
X57207937Y-25312422D01*
X57064349Y-25350897D01*
X56998514Y-25368537D01*
X56998512Y-25368538D01*
X56993204Y-25369960D01*
X56988223Y-25372282D01*
X56988222Y-25372283D01*
X56796711Y-25461586D01*
X56796706Y-25461589D01*
X56791724Y-25463912D01*
X56787217Y-25467068D01*
X56787215Y-25467069D01*
X56614130Y-25588264D01*
X56614127Y-25588266D01*
X56609619Y-25591423D01*
X56452423Y-25748619D01*
X56449266Y-25753127D01*
X56449264Y-25753130D01*
X56343296Y-25904469D01*
X56324912Y-25930724D01*
X56322589Y-25935706D01*
X56322586Y-25935711D01*
X56273319Y-26041365D01*
X56226401Y-26094650D01*
X56158124Y-26114111D01*
X56090164Y-26093569D01*
X56044929Y-26041365D01*
X55995777Y-25935959D01*
X55990297Y-25926468D01*
X55959606Y-25882635D01*
X55949129Y-25874260D01*
X55935682Y-25881328D01*
X55261422Y-26555588D01*
X55253808Y-26569532D01*
X54523756Y-26569532D01*
X54524992Y-26567268D01*
X54524861Y-26565435D01*
X54520610Y-26558820D01*
X53842397Y-25880607D01*
X53830623Y-25874177D01*
X53818607Y-25883474D01*
X53788503Y-25926468D01*
X53783023Y-25935959D01*
X53693755Y-26127393D01*
X53690009Y-26137685D01*
X53635341Y-26341709D01*
X53633438Y-26352504D01*
X53615028Y-26562925D01*
X53615028Y-26573875D01*
X50842243Y-26573875D01*
X50842243Y-25508671D01*
X54195260Y-25508671D01*
X54202328Y-25522118D01*
X54876588Y-26196378D01*
X54890532Y-26203992D01*
X54892365Y-26203861D01*
X54898980Y-26199610D01*
X55577193Y-25521397D01*
X55583623Y-25509623D01*
X55574326Y-25497607D01*
X55531331Y-25467502D01*
X55521845Y-25462024D01*
X55330407Y-25372755D01*
X55320115Y-25369009D01*
X55116091Y-25314341D01*
X55105296Y-25312438D01*
X54894875Y-25294028D01*
X54883925Y-25294028D01*
X54673504Y-25312438D01*
X54662709Y-25314341D01*
X54458685Y-25369009D01*
X54448393Y-25372755D01*
X54256959Y-25462023D01*
X54247468Y-25467503D01*
X54203635Y-25498194D01*
X54195260Y-25508671D01*
X50842243Y-25508671D01*
X50842243Y-22542855D01*
X50843208Y-22527287D01*
X50846277Y-22502639D01*
X50846277Y-22502638D01*
X50847386Y-22493731D01*
X50844945Y-22478661D01*
X50843433Y-22453285D01*
X50851086Y-22269222D01*
X50853147Y-22251173D01*
X50891855Y-22045304D01*
X50896490Y-22027739D01*
X50964401Y-21829575D01*
X50971514Y-21812859D01*
X51067215Y-21626522D01*
X51076658Y-21611003D01*
X51198160Y-21440364D01*
X51209737Y-21426363D01*
X51354518Y-21274968D01*
X51367986Y-21262778D01*
X51533036Y-21133774D01*
X51548111Y-21123653D01*
X51571037Y-21110553D01*
X51729996Y-21019725D01*
X51746369Y-21011877D01*
X51941303Y-20935186D01*
X51958643Y-20929771D01*
X52162581Y-20881909D01*
X52180520Y-20879044D01*
X52356862Y-20863803D01*
X52374740Y-20864287D01*
X52383200Y-20864272D01*
X52392090Y-20865528D01*
X52400974Y-20864239D01*
X52400977Y-20864239D01*
X52419121Y-20861606D01*
X52437213Y-20860300D01*
X77356838Y-20860300D01*
X77370272Y-20861018D01*
G37*
G04 #@! TD.AperFunction*
M02*
