G04 #@! TF.GenerationSoftware,KiCad,Pcbnew,(6.0.7)*
G04 #@! TF.CreationDate,2022-10-05T19:21:38-05:00*
G04 #@! TF.ProjectId,INA186_Breakout,494e4131-3836-45f4-9272-65616b6f7574,rev?*
G04 #@! TF.SameCoordinates,Original*
G04 #@! TF.FileFunction,Legend,Bot*
G04 #@! TF.FilePolarity,Positive*
%FSLAX46Y46*%
G04 Gerber Fmt 4.6, Leading zero omitted, Abs format (unit mm)*
G04 Created by KiCad (PCBNEW (6.0.7)) date 2022-10-05 19:21:38*
%MOMM*%
%LPD*%
G01*
G04 APERTURE LIST*
%ADD10C,2.600000*%
%ADD11C,2.400000*%
%ADD12O,2.400000X2.400000*%
%ADD13C,1.400000*%
%ADD14C,1.524000*%
G04 APERTURE END LIST*
G36*
X61700672Y-39379204D02*
G01*
X61500144Y-39107639D01*
X61330803Y-38844073D01*
X61261405Y-38718318D01*
X61195067Y-38594278D01*
X61141140Y-38503132D01*
X61109972Y-38462200D01*
X61107944Y-38461461D01*
X61073221Y-38487215D01*
X60994641Y-38557367D01*
X60883808Y-38661250D01*
X60752327Y-38788197D01*
X60750222Y-38790257D01*
X60580528Y-38950183D01*
X60450308Y-39057658D01*
X60349222Y-39120449D01*
X60278756Y-39144440D01*
X60197362Y-39151833D01*
X60052830Y-39157058D01*
X59860154Y-39159895D01*
X59634325Y-39160120D01*
X59393795Y-39157568D01*
X59130925Y-39152654D01*
X58934336Y-39146871D01*
X58792159Y-39138932D01*
X58692522Y-39127552D01*
X58623554Y-39111446D01*
X58573384Y-39089328D01*
X58536517Y-39064739D01*
X58380472Y-38916673D01*
X58290725Y-38747227D01*
X58257699Y-38570543D01*
X58272780Y-38365160D01*
X58356317Y-38189249D01*
X58512158Y-38035533D01*
X58557616Y-38003237D01*
X58613782Y-37968875D01*
X58673050Y-37944704D01*
X58749869Y-37928948D01*
X58858688Y-37919830D01*
X59013959Y-37915575D01*
X59230129Y-37914405D01*
X59280247Y-37914384D01*
X59871029Y-37914384D01*
X60310006Y-37474158D01*
X60748984Y-37033931D01*
X60748984Y-34426585D01*
X60576646Y-34585440D01*
X60453566Y-34681924D01*
X60331864Y-34749858D01*
X60273800Y-34768755D01*
X60194059Y-34775848D01*
X60051062Y-34780817D01*
X59859683Y-34783455D01*
X59634798Y-34783555D01*
X59393795Y-34780953D01*
X59130925Y-34776039D01*
X58934336Y-34770256D01*
X58792159Y-34762317D01*
X58692522Y-34750937D01*
X58623554Y-34734831D01*
X58573384Y-34712713D01*
X58536517Y-34688124D01*
X58380472Y-34540058D01*
X58290725Y-34370612D01*
X58257699Y-34193928D01*
X58272780Y-33988545D01*
X58356317Y-33812633D01*
X58512158Y-33658918D01*
X58557616Y-33626622D01*
X58613782Y-33592259D01*
X58673050Y-33568088D01*
X58749869Y-33552332D01*
X58858688Y-33543215D01*
X59013959Y-33538960D01*
X59230129Y-33537789D01*
X59280247Y-33537769D01*
X59871029Y-33537769D01*
X60179213Y-33225154D01*
X61994311Y-33225154D01*
X62009016Y-35208308D01*
X62012422Y-35654013D01*
X62015690Y-36028871D01*
X62019148Y-36340189D01*
X62023126Y-36595273D01*
X62027955Y-36801429D01*
X62033964Y-36965962D01*
X62041484Y-37096179D01*
X62050843Y-37199386D01*
X62062371Y-37282888D01*
X62076400Y-37353993D01*
X62093257Y-37420005D01*
X62111702Y-37483027D01*
X62290259Y-37947975D01*
X62531568Y-38375652D01*
X62829644Y-38758765D01*
X63178504Y-39090018D01*
X63572163Y-39362113D01*
X63717719Y-39441159D01*
X63879197Y-39516777D01*
X64055581Y-39589428D01*
X64225117Y-39651148D01*
X64366052Y-39693970D01*
X64451523Y-39709821D01*
X64460567Y-39695636D01*
X64468497Y-39649471D01*
X64475376Y-39567154D01*
X64481267Y-39444512D01*
X64486233Y-39277374D01*
X64490336Y-39061567D01*
X64493640Y-38792920D01*
X64496207Y-38467259D01*
X64498101Y-38080413D01*
X64499384Y-37628210D01*
X64500118Y-37106477D01*
X64500368Y-36511042D01*
X64500369Y-36468538D01*
X64500369Y-33225154D01*
X61994311Y-33225154D01*
X60179213Y-33225154D01*
X60304413Y-33098154D01*
X60737798Y-32658538D01*
X60800923Y-32258349D01*
X60864326Y-31974692D01*
X62150487Y-31974692D01*
X68100713Y-31974692D01*
X68073982Y-31886769D01*
X68045204Y-31815096D01*
X67989582Y-31693953D01*
X67916400Y-31543171D01*
X67868143Y-31447154D01*
X67775037Y-31275747D01*
X67679026Y-31128462D01*
X67563985Y-30984136D01*
X67413793Y-30821608D01*
X67315856Y-30722282D01*
X67135419Y-30547317D01*
X66983878Y-30415628D01*
X66839667Y-30310810D01*
X66681223Y-30216456D01*
X66582140Y-30164074D01*
X66260553Y-30013439D01*
X65964987Y-29910094D01*
X65667288Y-29847273D01*
X65339303Y-29818214D01*
X65125600Y-29814164D01*
X64765312Y-29827050D01*
X64451935Y-29870111D01*
X64157865Y-29949954D01*
X63855498Y-30073184D01*
X63678209Y-30160530D01*
X63386765Y-30337753D01*
X63094143Y-30563224D01*
X62826202Y-30814950D01*
X62610494Y-31068627D01*
X62523775Y-31199769D01*
X62425212Y-31368571D01*
X62327602Y-31550868D01*
X62243738Y-31722498D01*
X62186418Y-31859296D01*
X62177260Y-31886769D01*
X62150487Y-31974692D01*
X60864326Y-31974692D01*
X60930291Y-31679576D01*
X61130385Y-31133985D01*
X61400794Y-30622396D01*
X61741104Y-30145628D01*
X62020921Y-29832813D01*
X62299922Y-29547088D01*
X62120376Y-29455681D01*
X61912386Y-29321635D01*
X61775025Y-29165411D01*
X61728511Y-29070687D01*
X61713902Y-28993562D01*
X61701576Y-28854474D01*
X61692459Y-28669604D01*
X61687479Y-28455129D01*
X61686831Y-28343773D01*
X61687533Y-28108781D01*
X61690748Y-27937932D01*
X61698138Y-27817221D01*
X61711366Y-27732641D01*
X61732092Y-27670188D01*
X61761979Y-27615854D01*
X61775684Y-27595016D01*
X61925406Y-27422364D01*
X62095684Y-27322881D01*
X62293796Y-27292722D01*
X62342990Y-27295099D01*
X62547169Y-27337785D01*
X62712087Y-27436686D01*
X62837185Y-27573935D01*
X62876633Y-27640530D01*
X62902869Y-27726283D01*
X62919388Y-27849677D01*
X62929687Y-28029198D01*
X62931231Y-28071221D01*
X62944708Y-28460709D01*
X63621138Y-28797299D01*
X63855600Y-28724993D01*
X64379841Y-28601355D01*
X64925736Y-28543615D01*
X65476286Y-28551786D01*
X66014489Y-28625876D01*
X66395600Y-28723394D01*
X66630061Y-28796533D01*
X66971984Y-28626759D01*
X67313908Y-28456985D01*
X67313908Y-28091925D01*
X67316466Y-27910476D01*
X67326674Y-27785854D01*
X67348327Y-27696827D01*
X67385222Y-27622162D01*
X67402760Y-27595016D01*
X67552482Y-27422364D01*
X67722761Y-27322881D01*
X67920873Y-27292722D01*
X67970067Y-27295099D01*
X68174230Y-27337779D01*
X68339149Y-27436668D01*
X68464262Y-27573895D01*
X68495891Y-27623777D01*
X68518677Y-27684584D01*
X68534471Y-27770184D01*
X68545125Y-27894442D01*
X68552488Y-28071227D01*
X68557532Y-28272649D01*
X68560467Y-28490631D01*
X68559951Y-28690547D01*
X68556261Y-28854786D01*
X68549676Y-28965736D01*
X68546208Y-28991710D01*
X68477004Y-29159993D01*
X68340659Y-29315895D01*
X68148185Y-29447110D01*
X68130457Y-29456291D01*
X67941187Y-29552201D01*
X68120698Y-29717669D01*
X68452837Y-30070583D01*
X68753223Y-30482054D01*
X69013875Y-30936188D01*
X69226812Y-31417090D01*
X69384056Y-31908866D01*
X69477625Y-32395624D01*
X69481442Y-32427846D01*
X69508496Y-32666076D01*
X70381446Y-33533508D01*
X70994194Y-33545408D01*
X71249098Y-33552010D01*
X71439719Y-33563345D01*
X71579925Y-33583700D01*
X71683585Y-33617363D01*
X71764567Y-33668621D01*
X71836742Y-33741762D01*
X71903031Y-33826357D01*
X71963011Y-33960076D01*
X71987205Y-34131347D01*
X71975615Y-34308241D01*
X71928240Y-34458829D01*
X71903031Y-34499643D01*
X71834373Y-34587757D01*
X71769651Y-34654270D01*
X71696757Y-34702438D01*
X71603584Y-34735518D01*
X71478026Y-34756768D01*
X71307975Y-34769445D01*
X71081325Y-34776805D01*
X70857404Y-34780953D01*
X70614001Y-34783567D01*
X70389381Y-34783440D01*
X70198419Y-34780778D01*
X70055989Y-34775787D01*
X69977399Y-34768755D01*
X69871179Y-34726442D01*
X69745081Y-34644381D01*
X69674553Y-34585440D01*
X69502215Y-34426585D01*
X69502215Y-37036429D01*
X69941831Y-37473276D01*
X70381446Y-37910124D01*
X70994194Y-37922023D01*
X71230635Y-37927560D01*
X71402461Y-37934714D01*
X71523210Y-37945223D01*
X71606422Y-37960825D01*
X71665636Y-37983257D01*
X71714389Y-38014257D01*
X71714703Y-38014491D01*
X71863508Y-38149197D01*
X71948308Y-38293074D01*
X71981708Y-38470743D01*
X71983600Y-38539615D01*
X71964140Y-38733518D01*
X71897357Y-38885650D01*
X71770645Y-39020626D01*
X71714682Y-39064739D01*
X71671167Y-39093002D01*
X71618981Y-39114157D01*
X71546254Y-39129488D01*
X71441114Y-39140282D01*
X71291691Y-39147824D01*
X71086114Y-39153400D01*
X70857404Y-39157568D01*
X70613566Y-39160136D01*
X70388096Y-39159873D01*
X70195988Y-39157001D01*
X70052234Y-39151744D01*
X69972443Y-39144440D01*
X69887938Y-39113402D01*
X69783052Y-39044256D01*
X69647444Y-38929233D01*
X69500978Y-38790257D01*
X69369271Y-38663040D01*
X69258036Y-38558725D01*
X69178877Y-38487979D01*
X69143398Y-38461468D01*
X69143256Y-38461461D01*
X69116279Y-38493608D01*
X69065030Y-38578500D01*
X68999860Y-38698815D01*
X68989794Y-38718318D01*
X68709054Y-39181691D01*
X68364438Y-39607582D01*
X67963600Y-39990004D01*
X67514190Y-40322973D01*
X67023860Y-40600502D01*
X66500260Y-40816606D01*
X66187302Y-40910673D01*
X65913381Y-40966085D01*
X65593555Y-41005136D01*
X65252858Y-41026798D01*
X64916321Y-41030040D01*
X64608976Y-41013832D01*
X64392316Y-40984552D01*
X63805150Y-40834619D01*
X63253235Y-40615146D01*
X62737959Y-40326830D01*
X62260709Y-39970369D01*
X62115283Y-39841131D01*
X61995683Y-39718133D01*
X65750831Y-39718133D01*
X65877831Y-39691465D01*
X65980801Y-39663017D01*
X66123072Y-39615347D01*
X66256881Y-39565320D01*
X66563495Y-39427529D01*
X66834161Y-39265872D01*
X67092793Y-39064163D01*
X67333446Y-38836610D01*
X67656579Y-38461160D01*
X67908556Y-38058209D01*
X68093760Y-37620298D01*
X68143129Y-37459145D01*
X68162487Y-37386865D01*
X68178766Y-37315704D01*
X68192290Y-37238245D01*
X68203383Y-37147069D01*
X68212371Y-37034759D01*
X68219578Y-36893895D01*
X68225329Y-36717062D01*
X68229949Y-36496839D01*
X68233762Y-36225809D01*
X68237093Y-35896554D01*
X68240267Y-35501656D01*
X68242523Y-35188769D01*
X68256353Y-33225154D01*
X65750831Y-33225154D01*
X65750831Y-39718133D01*
X61995683Y-39718133D01*
X61912385Y-39632469D01*
X61700672Y-39379204D01*
G37*
%LPC*%
D10*
X74193400Y-44754800D03*
D11*
X69342000Y-24434800D03*
D12*
X69342000Y-44754800D03*
D10*
X74193400Y-24434800D03*
D13*
X63703200Y-34874200D03*
X54889400Y-32080200D03*
X54889400Y-34848800D03*
X54889400Y-37617400D03*
D14*
X54889400Y-26568400D03*
X57429400Y-26568400D03*
X54889400Y-43561000D03*
X57429400Y-43561000D03*
D13*
X63703200Y-32105600D03*
X63703200Y-37642800D03*
M02*
